<svg width="450" height="227" viewBox="0 0 450 227" fill="none" xmlns="http://www.w3.org/2000/svg">
<path d="M433.31 226.179H381.538H329.766H277.994H226.222H174.478H122.706H70.9346H19.1769C16.3047 219.877 13.9754 214.033 12.2035 208.588C10.4316 203.129 9.21693 198.071 8.5596 193.341C7.90227 188.611 7.78795 184.21 8.23093 180.094C8.67392 175.964 9.65991 172.121 11.2032 168.491C12.7465 164.861 14.8328 161.446 17.4764 158.188C20.12 154.93 23.3067 151.829 27.0363 148.842C30.7659 145.842 35.0529 142.955 39.8685 140.097C44.6985 137.239 50.0572 134.438 55.9731 131.609C57.7594 130.894 59.4456 130.166 61.0317 129.394C62.6179 128.622 64.0897 127.794 65.4616 126.936C66.8334 126.064 68.0909 125.136 69.2198 124.15C70.363 123.149 71.3775 122.092 72.2778 120.949C73.1781 119.806 73.9497 118.577 74.5927 117.262C75.2358 115.947 75.7502 114.533 76.1218 113.004C76.4933 111.475 76.7362 109.846 76.8362 108.102C76.9363 106.345 76.8791 104.473 76.6933 102.472C74.8214 91.2402 74.5499 80.7086 75.6359 71.0059C76.7219 61.3031 79.1798 52.4148 82.7522 44.4554C86.3247 36.496 91.0117 29.4797 96.5847 23.4923C102.158 17.5191 108.617 12.5749 115.704 8.80236C122.792 5.02985 130.523 2.40053 138.654 1.05729C146.785 -0.285954 155.316 -0.371693 164.004 0.928679C172.692 2.22905 181.538 4.91553 190.297 9.10245C199.057 13.2894 207.745 18.9624 216.09 26.2502C216.891 26.979 217.676 27.7221 218.462 28.4794C219.248 29.2368 220.034 29.9798 220.806 30.7372C221.592 31.4946 222.378 32.2519 223.164 32.995C223.95 33.7381 224.75 34.4811 225.55 35.2099C226.35 35.9387 227.165 36.6389 227.994 37.3391C228.823 38.025 229.666 38.6966 230.537 39.3254C231.409 39.9684 232.281 40.5686 233.195 41.1402C234.11 41.7118 235.039 42.2548 235.996 42.7406C242.255 44.9556 248.414 45.9273 254.501 46.0416C260.589 46.1702 266.605 45.4557 272.578 44.2982C278.551 43.1408 284.481 41.5403 290.412 39.9113C296.342 38.2822 302.258 36.6103 308.217 35.3099C314.175 34.0096 320.149 33.0664 326.193 32.895C332.238 32.7235 338.34 33.3237 344.541 35.0813C350.743 36.8532 357.031 39.7826 363.461 44.2839C369.877 48.7852 376.436 54.8727 383.152 62.9321C386.096 66.4331 388.354 70.0627 390.069 73.7924C391.783 77.522 392.984 81.3517 393.784 85.2385C394.598 89.1396 395.027 93.0979 395.227 97.0848C395.427 101.072 395.413 105.101 395.327 109.117C395.241 113.132 395.07 117.148 394.999 121.134C394.927 125.107 394.927 129.051 395.17 132.924C395.413 136.796 395.899 140.597 396.756 144.284C397.628 147.971 398.885 151.557 400.7 155.016C401.143 155.601 401.615 156.159 402.101 156.688C402.601 157.216 403.115 157.731 403.644 158.231C404.173 158.717 404.73 159.203 405.302 159.66C405.873 160.117 406.445 160.574 407.045 161.003C407.631 161.446 408.231 161.875 408.831 162.303C409.431 162.732 410.046 163.147 410.646 163.575C411.246 164.004 411.861 164.418 412.461 164.847C413.061 165.276 413.647 165.719 414.233 166.162C416.462 167.876 418.562 169.777 420.52 171.835C422.478 173.892 424.293 176.093 425.936 178.408C427.579 180.723 429.065 183.167 430.352 185.71C431.638 188.239 432.752 190.854 433.652 193.527C434.553 196.199 435.253 198.928 435.724 201.686C436.196 204.444 436.439 207.216 436.439 209.988C436.439 212.761 436.196 215.519 435.682 218.234C435.153 220.906 434.367 223.578 433.31 226.179Z" fill="#EEF2F8"/>
<path d="M450 226.065H393.755H337.496H281.252H225.007H168.748H112.504H56.2446H0V225.964V225.85V225.75V225.65V225.536V225.436V225.336V225.221H56.2446H112.504H168.748H225.007H281.252H337.496H393.755H450V225.336V225.436V225.536V225.65V225.75V225.85V225.964V226.065Z" fill="#1F1949"/>
<path d="M308.56 224.864V217.105V209.345V201.586V193.827V186.067V178.308V170.549V162.789C309.274 163.818 309.96 164.876 310.589 165.962C311.232 167.033 311.832 168.134 312.389 169.248C312.947 170.363 313.475 171.492 313.961 172.635C314.447 173.778 314.89 174.936 315.29 176.107C315.69 177.279 316.062 178.465 316.39 179.666C316.719 180.866 317.005 182.081 317.248 183.295C317.491 184.51 317.705 185.753 317.877 186.996C318.048 188.239 318.177 189.483 318.262 190.74C318.591 189.497 319.005 188.297 319.506 187.139C320.006 185.982 320.592 184.867 321.249 183.781C321.906 182.695 322.621 181.652 323.392 180.637C324.164 179.623 324.979 178.622 325.836 177.651C326.693 176.679 327.579 175.736 328.48 174.807C329.38 173.878 330.309 172.964 331.238 172.063C332.166 171.163 333.081 170.263 333.995 169.377C334.91 168.491 335.796 167.605 336.668 166.719C336.839 168.091 337.025 169.477 337.182 170.877C337.339 172.278 337.496 173.692 337.611 175.107C337.725 176.522 337.825 177.951 337.868 179.38C337.911 180.809 337.925 182.223 337.868 183.638C337.811 185.053 337.711 186.453 337.539 187.854C337.368 189.24 337.111 190.626 336.782 191.983C336.453 193.341 336.039 194.67 335.524 195.985C335.01 197.285 334.396 198.571 333.681 199.814C334.353 198.871 335.196 197.957 336.153 197.099C337.111 196.242 338.211 195.413 339.397 194.641C340.583 193.87 341.869 193.127 343.198 192.441C344.527 191.755 345.942 191.112 347.371 190.512C348.8 189.911 350.257 189.354 351.715 188.84C353.172 188.325 354.616 187.868 356.03 187.439C357.445 187.011 358.817 186.639 360.103 186.31C361.389 185.982 362.632 185.696 363.747 185.453C363.404 186.482 363.061 187.539 362.689 188.582C362.318 189.64 361.946 190.683 361.532 191.74C361.132 192.784 360.703 193.827 360.231 194.856C359.774 195.884 359.274 196.885 358.745 197.871C358.217 198.857 357.645 199.814 357.031 200.729C356.416 201.643 355.759 202.529 355.044 203.372C354.33 204.215 353.558 205.001 352.729 205.744C351.901 206.488 351.015 207.159 350.057 207.774C351.358 207.116 352.744 206.588 354.201 206.187C355.644 205.773 357.159 205.473 358.717 205.273C360.274 205.059 361.875 204.944 363.504 204.887C365.133 204.83 366.791 204.844 368.448 204.916C370.106 204.973 371.792 205.087 373.45 205.216C375.107 205.344 376.765 205.502 378.394 205.644C380.023 205.802 381.623 205.945 383.167 206.073C384.71 206.202 386.225 206.316 387.668 206.373C386.882 207.288 386.096 208.231 385.296 209.174C384.496 210.117 383.695 211.06 382.867 212.003C382.052 212.947 381.209 213.875 380.352 214.776C379.494 215.676 378.622 216.562 377.708 217.405C376.808 218.248 375.865 219.063 374.907 219.806C373.935 220.563 372.935 221.263 371.892 221.892C370.849 222.521 369.763 223.092 368.648 223.578C367.519 224.064 366.348 224.478 365.119 224.778C365.119 224.778 364.233 224.778 362.689 224.778C361.146 224.778 358.931 224.793 356.273 224.793C353.615 224.807 350.529 224.807 347.214 224.821C343.898 224.836 340.354 224.836 336.825 224.85C333.281 224.864 329.751 224.864 326.436 224.879C323.121 224.893 320.02 224.893 317.376 224.907C314.718 224.921 312.518 224.921 310.96 224.921C309.446 224.85 308.56 224.864 308.56 224.864Z" fill="#97C197"/>
<mask id="mask0_366_219" style="mask-type:luminance" maskUnits="userSpaceOnUse" x="308" y="162" width="80" height="63">
<path d="M308.56 224.864V217.105V209.345V201.586V193.827V186.067V178.308V170.549V162.789C309.274 163.818 309.96 164.876 310.589 165.962C311.232 167.033 311.832 168.134 312.389 169.248C312.947 170.363 313.475 171.492 313.961 172.635C314.447 173.778 314.89 174.936 315.29 176.107C315.69 177.279 316.062 178.465 316.39 179.666C316.719 180.866 317.005 182.081 317.248 183.295C317.491 184.51 317.705 185.753 317.877 186.996C318.048 188.239 318.177 189.483 318.262 190.74C318.591 189.497 319.005 188.297 319.506 187.139C320.006 185.982 320.592 184.867 321.249 183.781C321.906 182.695 322.621 181.652 323.392 180.637C324.164 179.623 324.979 178.622 325.836 177.651C326.693 176.679 327.579 175.736 328.48 174.807C329.38 173.878 330.309 172.964 331.238 172.063C332.166 171.163 333.081 170.263 333.995 169.377C334.91 168.491 335.796 167.605 336.668 166.719C336.839 168.091 337.025 169.477 337.182 170.877C337.339 172.278 337.496 173.692 337.611 175.107C337.725 176.522 337.825 177.951 337.868 179.38C337.911 180.809 337.925 182.223 337.868 183.638C337.811 185.053 337.711 186.453 337.539 187.854C337.368 189.24 337.111 190.626 336.782 191.983C336.453 193.341 336.039 194.67 335.524 195.985C335.01 197.285 334.396 198.571 333.681 199.814C334.353 198.871 335.196 197.957 336.153 197.099C337.111 196.242 338.211 195.413 339.397 194.641C340.583 193.87 341.869 193.127 343.198 192.441C344.527 191.755 345.942 191.112 347.371 190.512C348.8 189.911 350.257 189.354 351.715 188.84C353.172 188.325 354.616 187.868 356.03 187.439C357.445 187.011 358.817 186.639 360.103 186.31C361.389 185.982 362.632 185.696 363.747 185.453C363.404 186.482 363.061 187.539 362.689 188.582C362.318 189.64 361.946 190.683 361.532 191.74C361.132 192.784 360.703 193.827 360.231 194.856C359.774 195.884 359.274 196.885 358.745 197.871C358.217 198.857 357.645 199.814 357.031 200.729C356.416 201.643 355.759 202.529 355.044 203.372C354.33 204.215 353.558 205.001 352.729 205.744C351.901 206.488 351.015 207.159 350.057 207.774C351.358 207.116 352.744 206.588 354.201 206.187C355.644 205.773 357.159 205.473 358.717 205.273C360.274 205.059 361.875 204.944 363.504 204.887C365.133 204.83 366.791 204.844 368.448 204.916C370.106 204.973 371.792 205.087 373.45 205.216C375.107 205.344 376.765 205.502 378.394 205.644C380.023 205.802 381.623 205.945 383.167 206.073C384.71 206.202 386.225 206.316 387.668 206.373C386.882 207.288 386.096 208.231 385.296 209.174C384.496 210.117 383.695 211.06 382.867 212.003C382.052 212.947 381.209 213.875 380.352 214.776C379.494 215.676 378.622 216.562 377.708 217.405C376.808 218.248 375.865 219.063 374.907 219.806C373.935 220.563 372.935 221.263 371.892 221.892C370.849 222.521 369.763 223.092 368.648 223.578C367.519 224.064 366.348 224.478 365.119 224.778C365.119 224.778 364.233 224.778 362.689 224.778C361.146 224.778 358.931 224.793 356.273 224.793C353.615 224.807 350.529 224.807 347.214 224.821C343.898 224.836 340.354 224.836 336.825 224.85C333.281 224.864 329.751 224.864 326.436 224.879C323.121 224.893 320.02 224.893 317.376 224.907C314.718 224.921 312.518 224.921 310.96 224.921C309.446 224.85 308.56 224.864 308.56 224.864Z" fill="white"/>
</mask>
<g mask="url(#mask0_366_219)">
<path d="M308.56 162.732L309.231 170.492L309.889 178.265L310.56 186.025L311.217 193.784L311.889 201.558L312.561 209.317L313.218 217.076L313.89 224.85H313.218H312.561H311.889H311.217H310.56H309.889H309.231H308.56V217.076V209.317V201.558V193.784V186.025V178.265V170.492V162.732Z" fill="#82B379"/>
</g>
<path d="M114.518 225.65V216.748V207.845V198.942V190.04V181.137V172.235V163.332V154.43C113.532 155.587 112.575 156.788 111.66 158.016C110.746 159.245 109.889 160.503 109.06 161.803C108.231 163.104 107.459 164.418 106.745 165.762C106.03 167.105 105.344 168.477 104.73 169.877C104.115 171.277 103.558 172.692 103.058 174.135C102.558 175.579 102.115 177.036 101.743 178.508C101.372 179.98 101.057 181.466 100.815 182.966C100.572 184.467 100.386 185.982 100.286 187.511C100.372 186.539 100.186 185.553 99.7857 184.553C99.3856 183.552 98.7711 182.566 97.9994 181.595C97.2278 180.623 96.2847 179.665 95.2415 178.737C94.1984 177.808 93.0409 176.908 91.8263 176.064C90.6116 175.221 89.3398 174.407 88.068 173.678C86.7962 172.935 85.5102 172.263 84.2812 171.663C83.0523 171.063 81.8663 170.549 80.7802 170.12C79.6942 169.691 78.7082 169.363 77.8794 169.148C77.7794 170.591 77.6936 172.078 77.6365 173.578C77.5793 175.078 77.565 176.607 77.6079 178.136C77.6365 179.665 77.7222 181.194 77.8794 182.709C78.0366 184.224 78.2509 185.724 78.5653 187.196C78.8797 188.668 79.2655 190.111 79.7657 191.497C80.2658 192.884 80.866 194.227 81.5805 195.513C82.295 196.799 83.1381 197.999 84.1098 199.128C85.0815 200.257 86.1961 201.3 87.4536 202.258C86.2961 201.729 85.1243 201.257 83.9383 200.872C82.7522 200.486 81.5376 200.143 80.323 199.871C79.1083 199.6 77.8651 199.371 76.6076 199.2C75.3644 199.028 74.1069 198.9 72.8351 198.814C71.5633 198.728 70.2915 198.685 69.0197 198.671C67.7479 198.657 66.4619 198.671 65.1758 198.7C63.8897 198.728 62.6179 198.785 61.3318 198.857C60.0457 198.928 58.7882 199 57.5165 199.085C58.3453 200 59.2027 200.872 60.0886 201.729C60.9746 202.572 61.9034 203.401 62.8465 204.187C63.7897 204.973 64.7757 205.73 65.776 206.445C66.7762 207.159 67.8051 207.859 68.8483 208.502C69.8914 209.16 70.9632 209.774 72.0635 210.346C73.1495 210.932 74.2641 211.475 75.393 211.975C76.5219 212.475 77.6651 212.946 78.8225 213.375C79.98 213.804 81.1518 214.19 82.3235 214.533C80.6373 214.333 78.9369 214.204 77.2364 214.161C75.5359 214.118 73.8354 214.147 72.1206 214.247C70.4201 214.347 68.7197 214.533 67.0335 214.79C65.3473 215.047 63.6754 215.376 62.0177 215.79C60.3601 216.205 58.7311 216.676 57.1163 217.248C55.5159 217.805 53.9297 218.434 52.3864 219.148C50.8431 219.863 49.3427 220.634 47.8708 221.492C46.4133 222.349 44.9843 223.278 43.6268 224.293L52.4864 224.478L61.3461 224.664L70.2058 224.85L79.0655 225.036L87.9251 225.221L96.7848 225.407L105.644 225.593L114.518 225.65Z" fill="#97C197"/>
<mask id="mask1_366_219" style="mask-type:luminance" maskUnits="userSpaceOnUse" x="43" y="154" width="72" height="72">
<path d="M114.518 225.65V216.748V207.845V198.942V190.04V181.137V172.235V163.332V154.43C113.532 155.587 112.575 156.788 111.66 158.016C110.746 159.245 109.889 160.503 109.06 161.803C108.231 163.104 107.459 164.418 106.745 165.762C106.03 167.105 105.344 168.477 104.73 169.877C104.115 171.277 103.558 172.692 103.058 174.135C102.558 175.579 102.115 177.036 101.743 178.508C101.372 179.98 101.057 181.466 100.815 182.966C100.572 184.467 100.386 185.982 100.286 187.511C100.372 186.539 100.186 185.553 99.7857 184.553C99.3856 183.552 98.7711 182.566 97.9994 181.595C97.2278 180.623 96.2847 179.665 95.2415 178.737C94.1984 177.808 93.0409 176.908 91.8263 176.064C90.6116 175.221 89.3398 174.407 88.068 173.678C86.7962 172.935 85.5102 172.263 84.2812 171.663C83.0523 171.063 81.8663 170.549 80.7802 170.12C79.6942 169.691 78.7082 169.363 77.8794 169.148C77.7794 170.591 77.6936 172.078 77.6365 173.578C77.5793 175.078 77.565 176.607 77.6079 178.136C77.6365 179.665 77.7222 181.194 77.8794 182.709C78.0366 184.224 78.2509 185.724 78.5653 187.196C78.8797 188.668 79.2655 190.111 79.7657 191.497C80.2658 192.884 80.866 194.227 81.5805 195.513C82.295 196.799 83.1381 197.999 84.1098 199.128C85.0815 200.257 86.1961 201.3 87.4536 202.258C86.2961 201.729 85.1243 201.257 83.9383 200.872C82.7522 200.486 81.5376 200.143 80.323 199.871C79.1083 199.6 77.8651 199.371 76.6076 199.2C75.3644 199.028 74.1069 198.9 72.8351 198.814C71.5633 198.728 70.2915 198.685 69.0197 198.671C67.7479 198.657 66.4619 198.671 65.1758 198.7C63.8897 198.728 62.6179 198.785 61.3318 198.857C60.0457 198.928 58.7882 199 57.5165 199.085C58.3453 200 59.2027 200.872 60.0886 201.729C60.9746 202.572 61.9034 203.401 62.8465 204.187C63.7897 204.973 64.7757 205.73 65.776 206.445C66.7762 207.159 67.8051 207.859 68.8483 208.502C69.8914 209.16 70.9632 209.774 72.0635 210.346C73.1495 210.932 74.2641 211.475 75.393 211.975C76.5219 212.475 77.6651 212.946 78.8225 213.375C79.98 213.804 81.1518 214.19 82.3235 214.533C80.6373 214.333 78.9369 214.204 77.2364 214.161C75.5359 214.118 73.8354 214.147 72.1206 214.247C70.4201 214.347 68.7197 214.533 67.0335 214.79C65.3473 215.047 63.6754 215.376 62.0177 215.79C60.3601 216.205 58.7311 216.676 57.1163 217.248C55.5159 217.805 53.9297 218.434 52.3864 219.148C50.8431 219.863 49.3427 220.634 47.8708 221.492C46.4133 222.349 44.9843 223.278 43.6268 224.293L52.4864 224.478L61.3461 224.664L70.2058 224.85L79.0655 225.036L87.9251 225.221L96.7848 225.407L105.644 225.593L114.518 225.65Z" fill="white"/>
</mask>
<g mask="url(#mask1_366_219)">
<path d="M114.518 154.401V163.189V171.978V180.766V189.554V198.328V207.116V215.904V224.693H113.532H112.546H111.56H110.574H109.603H108.617H107.631H106.645L107.631 215.904L108.617 207.116L109.603 198.328L110.574 189.554L111.56 180.766L112.546 171.978L113.532 163.189L114.518 154.401Z" fill="#82B379"/>
</g>
<path d="M308.56 224.693H284.267H259.96H235.653H211.36H187.053H162.747H138.454H114.147V203.058V181.437V159.803V138.168V116.547V94.9127V73.2779V51.6575H138.454H162.747H187.053H211.36H235.653H259.96H284.267H308.56V73.2779V94.9127V116.547V138.168V159.803V181.437V203.058V224.693Z" fill="white"/>
<path d="M291.926 84.4098H271.749H251.572H231.395H211.218H191.04H170.863H150.686H130.509V82.7808V81.1661V79.537V77.908V76.2932V74.6642V73.0352V71.4204H150.686H170.863H191.04H211.218H231.395H251.572H271.749H291.926V73.0352V74.6642V76.2932V77.908V79.537V81.1661V82.7808V84.4098Z" fill="#EEF2F8"/>
<path d="M291.926 106.216H271.749H251.572H231.395H211.218H191.04H170.863H150.686H130.509V104.601V102.972V101.343V99.7284V98.0994V96.4703V94.8556V93.2266H150.686H170.863H191.04H211.218H231.395H251.572H271.749H291.926V94.8556V96.4703V98.0994V99.7284V101.343V102.972V104.601V106.216Z" fill="#EEF2F8"/>
<path d="M291.926 128.037H271.749H251.572H231.395H211.218H191.04H170.863H150.686H130.509V126.408V124.779V123.164V121.535V119.906V118.291V116.662V115.033H150.686H170.863H191.04H211.218H231.395H251.572H271.749H291.926V116.662V118.291V119.906V121.535V123.164V124.779V126.408V128.037Z" fill="#EEF2F8"/>
<path d="M291.926 149.843H271.749H251.572H231.395H211.218H191.04H170.863H150.686H130.509V148.214V146.599V144.97V143.341V141.726V140.097V138.468V136.854H150.686H170.863H191.04H211.218H231.395H251.572H271.749H291.926V138.468V140.097V141.726V143.341V144.97V146.599V148.214V149.843Z" fill="#EEF2F8"/>
<path d="M291.926 171.649H271.749H251.572H231.395H211.218H191.04H170.863H150.686H130.509V170.034V168.405V166.776V165.162V163.532V161.903V160.289V158.66H150.686H170.863H191.04H211.218H231.395H251.572H271.749H291.926V160.289V161.903V163.532V165.162V166.776V168.405V170.034V171.649Z" fill="#EEF2F8"/>
<path d="M219.548 193.47H208.417H197.285H186.153H175.036H163.904H152.772H141.641H130.509V191.841V190.212V188.597V186.968V185.339V183.724V182.095V180.48H141.641H152.772H163.904H175.036H186.153H197.285H208.417H219.548V182.095V183.724V185.339V186.968V188.597V190.212V191.841V193.47Z" fill="#EEF2F8"/>
<path d="M205.644 182.366C201.529 188.325 192.798 188.54 188.382 182.795L157.331 142.426C154.487 138.725 155.173 133.409 158.874 130.552C162.575 127.708 167.891 128.394 170.749 132.095L196.599 165.69L250.186 88.2394C252.844 84.3955 258.117 83.438 261.961 86.0959C265.805 88.7538 266.762 94.0268 264.104 97.8707L205.644 182.366Z" fill="#1B61DD"/>
</svg>
