<svg width="200" height="70" viewBox="0 0 200 70" fill="none" xmlns="http://www.w3.org/2000/svg">
<path d="M35.3003 0L0 20.0169V36.9936L50.2172 8.52388L35.3003 0Z" fill="white"/>
<path d="M0 41.3271V58.2967L43.4421 33.6485L28.4311 25.1956L0 41.3271Z" fill="white"/>
<path d="M16.5804 69.9033V53.232L1.82251 61.5925C7.08646 64.5617 11.7213 67.1757 16.5804 69.9033Z" fill="white"/>
<path d="M70.5774 24.6414C69.9483 25.1813 69.6374 26.1331 69.6374 27.4827V27.5253H73.8529V31.9222H69.6374V47.9897H64.3373V31.9222H61.6475V27.5253H64.3228V27.0423C64.3228 24.6059 65.0459 22.7235 66.4487 21.4094C67.8514 20.0953 69.9628 19.4276 72.7466 19.4276C73.1111 19.4228 73.4755 19.4371 73.8384 19.4703V23.9737C72.2983 23.8814 71.2065 24.1016 70.5774 24.6414Z" fill="white"/>
<path d="M92.1109 28.52C93.7166 29.3449 95.0431 30.611 95.9287 32.1639C96.8892 33.8758 97.3708 35.8071 97.3243 37.7613C97.3694 39.7062 96.8878 41.6281 95.9287 43.3302C95.0367 44.8765 93.7117 46.1388 92.1109 46.9671C90.4132 47.8076 88.5385 48.2455 86.6373 48.2455C84.7361 48.2455 82.8614 47.8076 81.1636 46.9671C79.566 46.1346 78.242 44.8733 77.3458 43.3302C76.3876 41.6255 75.9085 39.7009 75.9575 37.7542C75.9088 35.8007 76.3878 33.8694 77.3458 32.1568C78.2375 30.6078 79.5658 29.3449 81.1709 28.52C82.8727 27.6928 84.7458 27.2625 86.6445 27.2625C88.5432 27.2625 90.4163 27.6928 92.1181 28.52H92.1109ZM82.8773 33.3075C81.8505 34.3304 81.3372 35.815 81.3372 37.7613C81.3372 39.7076 81.8505 41.1898 82.8773 42.2079C83.3704 42.6941 83.9564 43.08 84.6016 43.3432C85.2468 43.6065 85.9386 43.742 86.6373 43.742C87.3359 43.742 88.0277 43.6065 88.6729 43.3432C89.3182 43.08 89.9041 42.6941 90.3972 42.2079C90.9436 41.6053 91.3619 40.9015 91.6276 40.138C91.8933 39.3744 92.0011 38.5663 91.9446 37.7613C92.0005 36.9552 91.8924 36.1462 91.6267 35.3816C91.3611 34.6169 90.9431 33.9119 90.3972 33.3075C89.9041 32.8213 89.3182 32.4355 88.6729 32.1722C88.0277 31.909 87.3359 31.7735 86.6373 31.7735C85.9386 31.7735 85.2468 31.909 84.6016 32.1722C83.9564 32.4355 83.3704 32.8213 82.8773 33.3075Z" fill="white"/>
<path d="M109.471 28.3565C110.767 27.5985 112.251 27.2076 113.759 27.227V32.8102H112.212C108.327 32.8102 106.384 34.5836 106.384 38.1305V47.9898H101.084V27.5254H106.384V31.4393C107.128 30.1697 108.191 29.1085 109.471 28.3565Z" fill="white"/>
<path d="M149.204 29.5356C150.65 31.0794 151.373 33.2648 151.373 36.0919V47.9898H146.102V36.6886C146.192 35.3642 145.753 34.0575 144.88 33.0446C144.443 32.6118 143.917 32.2748 143.337 32.0556C142.758 31.8365 142.138 31.7402 141.518 31.7732C140.864 31.7422 140.211 31.8478 139.601 32.0829C138.992 32.3179 138.44 32.6772 137.982 33.137C137.032 34.2493 136.56 35.6809 136.666 37.129V47.9898H131.395V36.6886C131.484 35.3642 131.046 34.0575 130.173 33.0446C129.736 32.6114 129.21 32.2742 128.63 32.055C128.051 31.8358 127.431 31.7398 126.811 31.7732C126.157 31.7422 125.503 31.8478 124.894 32.0829C124.284 32.3179 123.733 32.6772 123.275 33.137C122.325 34.2493 121.853 35.6809 121.959 37.129V47.9898H116.651V27.5254H121.959V31.4038C122.467 30.1259 123.382 29.0443 124.569 28.321C125.821 27.5752 127.263 27.1957 128.727 27.2271C130.286 27.1846 131.824 27.5974 133.145 28.4133C134.414 29.2332 135.395 30.4193 135.95 31.8087C136.525 30.6487 137.372 29.6393 138.421 28.8633C139.47 28.0874 140.692 27.5672 141.986 27.3453C143.28 27.1234 144.608 27.2063 145.863 27.587C147.118 27.9678 148.263 28.6356 149.204 29.5356Z" fill="white"/>
<path d="M156.371 19.5981C157.049 19.082 157.884 18.802 158.742 18.802C159.601 18.802 160.435 19.082 161.114 19.5981C161.407 19.8549 161.64 20.1718 161.794 20.5266C161.949 20.8813 162.023 21.2651 162.01 21.6509C162.021 22.0302 161.946 22.407 161.791 22.7544C161.636 23.1019 161.405 23.4115 161.114 23.6612C160.435 24.1772 159.601 24.4572 158.742 24.4572C157.884 24.4572 157.049 24.1772 156.371 23.6612C156.079 23.4119 155.847 23.1025 155.69 22.7551C155.534 22.4076 155.458 22.0307 155.467 21.6509C155.455 21.2646 155.53 20.8806 155.687 20.5259C155.843 20.1713 156.076 19.8545 156.371 19.5981ZM161.374 27.5253V47.9897H156.074V27.5253H161.374Z" fill="white"/>
<path d="M173.224 24.6414C172.595 25.1813 172.284 26.1331 172.284 27.4827V27.5253H176.493V31.9222H172.277V47.9897H166.97V31.9222H164.323V27.5253H166.992V27.0423C166.992 24.6059 167.715 22.7235 169.117 21.4094C170.52 20.0953 172.632 19.4276 175.415 19.4276C175.78 19.4228 176.144 19.4371 176.507 19.4703V23.9737C174.938 23.8814 173.846 24.1016 173.224 24.6414Z" fill="white"/>
<path d="M183.225 27.5253L188.908 41.4193L194.172 27.5253H200L187.252 57.7496H181.381L186.081 47.4002L177.339 27.5253H183.225Z" fill="white"/>
</svg>
